<?xml version="1.0" encoding="utf-8"?>
<!-- Generator: Adobe Illustrator 22.0.1, SVG Export Plug-In . SVG Version: 6.00 Build 0)  -->
<svg version="1.1" xmlns="http://www.w3.org/2000/svg" xmlns:xlink="http://www.w3.org/1999/xlink" x="0px" y="0px"
	 viewBox="0 0 2500 2500" style="enable-background:new 0 0 2500 2500;" xml:space="preserve">
<style type="text/css">
	.st0{fill:url(#SVGID_1_);}
	.st1{fill:url(#SVGID_2_);}
	.st2{fill:url(#SVGID_3_);}
	.st3{fill:url(#SVGID_4_);}
	.st4{fill:url(#SVGID_5_);}
	.st5{fill:url(#SVGID_6_);}
	.st6{fill:url(#SVGID_7_);}
	.st7{fill:url(#SVGID_8_);}
	.st8{fill:url(#SVGID_9_);}
	.st9{fill:url(#SVGID_10_);}
	.st10{fill:#3A3A3A;}
</style>
<g id="Layer_1">
	<g>
		<g>
			<linearGradient id="SVGID_1_" gradientUnits="userSpaceOnUse" x1="2166.8608" y1="1043.1798" x2="333.1392" y2="1043.1798">
				<stop  offset="2.054068e-07" style="stop-color:#747474"/>
				<stop  offset="1" style="stop-color:#909090"/>
			</linearGradient>
			<path class="st0" d="M842.9,1923.9c-59.3-29.7-114.2-65.5-165.4-107c-49.2-39.9-93.8-84.5-133.8-133.7
				c-37.7-46.3-70.7-95.7-98.9-148.4c-47.3-88.3-79.7-181.6-97.3-280.2c-12.2-68.4-16.7-137.4-13.2-206.7
				c7-141.6,42.9-275.6,110-400.7C492.6,557,554.3,476.8,629.5,407c75.8-70.4,160.7-126.8,255.2-168.5
				c72.9-32.1,148.7-54.1,227.5-66.2c61.4-9.5,123.1-12,185-9.1c60.3,2.8,119.7,12.1,178.2,27.2c112.2,28.9,214.9,77.6,308.5,145.6
				c78.2,56.8,145.7,124.3,202.8,202.4c44.1,60.3,80.4,125,108.9,194.1c32.3,78.2,53.4,159.4,63.8,243.4c6.8,55,9.1,110.2,6.1,165.5
				c-4.7,89.2-21.7,176-51.3,260.2c-32.2,91.7-77.4,176.4-136,254.1c-50.6,67.1-109.2,126-175.6,177.4
				c-37.5,29-77.5,54.3-118.7,77.6c-8.4,4.8-17.3,8.8-27.2,13.7c-3.2-7.7-6.5-15.6-9.7-23.4c-15.8-38.2-31.5-76.5-47.5-114.7
				c-2.2-5.3-1.3-7.8,3.6-10.2c47.1-22.8,91.1-50.9,132.3-83c68.6-53.4,127.3-116.3,175.5-188.7c52.1-78.1,89.6-162.8,112.3-253.9
				c14.2-57.3,22.1-115.4,23.5-174.5c3.1-130.8-23.1-255.5-79.7-373.4c-54.8-114.2-132.6-210.2-232.8-287.7
				c-102.5-79.3-217.7-130.6-345.3-153.5c-67.6-12.1-135.8-15.1-204.4-9.4c-83.2,6.9-163.2,26.5-240.1,58.9
				c-82.6,34.8-157.1,82.3-223.7,142.3c-13.1,11.8-26.7,23.2-38.7,36.1c-48.9,52.6-92.4,109.3-127.1,172.5
				c-45.4,82.7-75.4,170.5-90.5,263.5c-8.7,53.7-12.1,107.8-9.7,162.1c6.1,135.2,43,261.5,111.7,378.3
				c50.2,85.4,114.3,159.1,191.7,221c43.4,34.7,90,64.6,139.8,89.2c3.6,1.8,5.1,3.2,3.4,7.4c-19,45.7-37.8,91.5-56.7,137.3
				C844.3,1921.6,843.6,1922.7,842.9,1923.9z"/>
			<linearGradient id="SVGID_2_" gradientUnits="userSpaceOnUse" x1="2024.5236" y1="1002.5742" x2="478.026" y2="1002.5742">
				<stop  offset="2.054068e-07" style="stop-color:#747474"/>
				<stop  offset="1" style="stop-color:#909090"/>
			</linearGradient>
			<path class="st1" d="M952.3,1594.5c-20,48-39.9,95.7-60.2,144.4c-10.5-5.8-20.4-11.1-30.1-16.8
				c-60.7-36.1-115.7-79.3-164.7-130.3c-77-80.2-134.6-172.6-172.6-277.1c-27-74.2-42.2-150.7-45.9-229.6
				C473.8,975,491,868.6,529.7,765.6c19.4-51.7,44.1-100.8,74.3-146.9c50.6-77.4,112.9-144.3,187.3-199.5
				c94.7-70.3,200-117.3,315.9-139.5c67.8-13,136.2-16.4,205.1-10.9c77.4,6.2,152.2,23.5,224.2,52.7
				c124.8,50.5,229.6,128.3,314.3,233.1c77.4,95.7,128.8,204,155.3,324.1c15.6,70.9,21.5,142.7,17.2,215.2
				c-7.9,131.3-46.1,253.1-115,365.3c-49.4,80.5-111.6,149.5-185.8,207.7c-33.5,26.2-69.3,49.1-106.6,69.6c-4.7,2.6-7.8,3.6-10.5-3
				c-18-43.8-36.2-87.5-54.6-131.2c-2-4.8-2.3-7.7,3-10.4c34.1-17.5,66-38.4,95.9-62.3c97.1-77.4,167.7-174.2,210.3-291
				c21.7-59.4,34.4-120.8,38-184.1c6.4-111.8-13-218.9-61.5-319.9c-75-156.2-193.5-266.6-354.8-330.4
				c-86.8-34.3-177.2-47.5-270-41.8c-144.8,9-272.4,61.5-382.7,155.8c-53.7,45.9-98.7,99.2-134.4,160.2
				c-13.8,23.7-27.8,47.6-38.3,72.8c-23.6,56.7-41.5,115.2-48,176.6c-3.4,31.6-6,63.5-5.9,95.3c0.1,59.6,9.4,118.2,26.2,175.4
				c16.1,54.9,38.9,106.9,68.6,155.7c38.4,62.9,85.9,118.1,142.8,165.2c33.7,27.9,69.8,52.2,108.6,72.6
				C949.6,1592.6,950.4,1593.3,952.3,1594.5z"/>
			<linearGradient id="SVGID_3_" gradientUnits="userSpaceOnUse" x1="1876.6722" y1="974.0239" x2="625.4479" y2="974.0239">
				<stop  offset="2.054068e-07" style="stop-color:#747474"/>
				<stop  offset="1" style="stop-color:#909090"/>
			</linearGradient>
			<path class="st2" d="M963.1,1567.2c-241.5-124.8-387.7-406.8-321.8-698.8c65-288.4,321.1-490.7,612.1-489.1
				c302.2,1.6,550.9,216.7,609.4,498.6c63.5,305.7-99.1,575.7-326,691c-18.9-45.4-37.9-90.8-56.8-136.3c14-8.4,27.6-16.3,40.8-24.6
				c54.2-34.2,99.6-78,137-129.9c51.5-71.5,82.7-151.2,91.9-238.8c11.4-108.2-8.7-210.5-62.7-305.4
				c-53.7-94.3-130.3-164.1-228.7-209.8c-51.3-23.9-105.4-37.9-161.9-42.8c-116.9-10.2-224.5,16.7-322.4,81.1
				c-50.8,33.4-94,75.1-129.6,124.4c-8.1,11.3-16.6,22.5-23.5,34.5c-25.1,43.2-44.7,88.8-56.8,137.4
				c-11.6,46.8-16.9,94.4-15.1,142.6c3.6,93.3,30.9,179.2,81.7,257.5c32.3,49.8,72.2,92.7,119.7,128.1
				c19.7,14.7,41.5,26.7,62.4,39.8c4.1,2.6,7.6,4.3,5,10.6c-17.7,41.9-35.1,83.9-52.6,125.9C964.8,1564.5,963.8,1565.8,963.1,1567.2
				z"/>
			<linearGradient id="SVGID_4_" gradientUnits="userSpaceOnUse" x1="1730.4445" y1="952.1733" x2="771.7472" y2="952.1733">
				<stop  offset="2.054068e-07" style="stop-color:#747474"/>
				<stop  offset="1" style="stop-color:#909090"/>
			</linearGradient>
			<path class="st3" d="M1083.9,1278.5c-17,40.7-34.8,83.4-53.1,127.3c-63.4-32.8-116.2-77.3-159-133.2
				c-73.5-96.1-106.8-205.1-99.1-325.6c15.3-239.7,204-426.8,434.9-447.2c242.3-21.5,455.9,140.2,509.2,366.6
				c57.1,242.4-74.7,454.1-247.5,540.2c-2.8-6.4-5.6-12.7-8.3-19.1c-14.4-34.7-28.7-69.5-43.4-104.1c-2.3-5.5-0.9-7.3,3.8-9.9
				c68-37.8,120.1-91.3,151.9-162.2c54.7-122.3,45.7-241.4-28.8-352.9c-54.5-81.6-131.9-131.7-228.9-149.6
				c-92.8-17.1-179.3,0.2-258.7,51c-41.2,26.3-75.1,60.3-102.4,100.8c-45.3,67.1-64.5,141.5-59.5,221.7
				c6.1,97.8,47.1,179.8,120,245.1C1036.1,1246,1060.3,1261.1,1083.9,1278.5z"/>
			<linearGradient id="SVGID_5_" gradientUnits="userSpaceOnUse" x1="1585.0217" y1="937.509" x2="916.9215" y2="937.509">
				<stop  offset="2.054068e-07" style="stop-color:#747474"/>
				<stop  offset="1" style="stop-color:#909090"/>
			</linearGradient>
			<path class="st4" d="M1094,1251.6c-125.2-65.6-208.3-215.8-166-380.6c38.7-150.9,183.2-257.1,340.5-248.3
				c162.4,9.1,290.8,132.1,312.8,285.1c24.3,168.9-76.9,296.7-176.2,345.2c-5.5-13-11-25.9-16.4-38.9
				c-10.8-25.9-21.4-51.8-32.4-77.6c-2.2-5.1-1.3-7.5,3.5-10.3c74.8-43.9,115.4-132.7,99.7-217.7c-17-92-85.7-160-178.3-173.9
				c-56.6-8.5-108.6,5.2-155.4,38.4c-17.7,12.5-33.4,26.9-45.7,44.6c-21.4,30.9-35.9,64.6-39.8,102.3c-6.8,66.9,13,124.9,59.9,173
				c11.8,12.1,26.3,21.7,39.9,32.1c3.6,2.8,6.1,4.4,3.8,9.6c-16.4,38.5-32.6,77.2-48.8,115.8C1095,1251,1094.4,1251.3,1094,1251.6z"
				/>
			<linearGradient id="SVGID_6_" gradientUnits="userSpaceOnUse" x1="1560.8441" y1="1735.618" x2="939.4971" y2="1735.618">
				<stop  offset="2.054068e-07" style="stop-color:#747474"/>
				<stop  offset="1" style="stop-color:#909090"/>
			</linearGradient>
			<path class="st5" d="M939.5,1761.4c16.4-40.4,32.2-79.1,47.9-117.5c175.4,69.4,350,72.8,525.6,0.5
				c15.9,38.9,31.7,77.5,47.9,117.2c-37.5,18.3-77,29.7-116.7,40.1C1271.7,1847.1,1104.1,1831.2,939.5,1761.4z"/>
			<linearGradient id="SVGID_7_" gradientUnits="userSpaceOnUse" x1="1490.0687" y1="1557.7167" x2="1010.8088" y2="1557.7167">
				<stop  offset="2.054068e-07" style="stop-color:#747474"/>
				<stop  offset="1" style="stop-color:#909090"/>
			</linearGradient>
			<path class="st6" d="M1490.1,1590.6c-20.2,7.1-40.2,14.7-60.6,21c-15.8,4.9-32,8.8-48.3,11.8c-19.5,3.6-39.1,6.1-58.8,8.3
				c-22.6,2.5-45.3,5.3-68,5.8c-41.5,0.8-82.7-3.6-123.3-11.5c-40-7.8-78.9-19.7-116.7-35.1c-5.6-2.3-3.2-5.3-2-8.4
				c10-24.7,20.1-49.4,30.2-74.1c4.1-10,8.2-20.1,12.5-30.5c15.8,5.2,30.8,10.6,46.1,15.2c44.8,13.5,90.6,21,137.5,21.3
				c21.3,0.1,42.6,0.8,63.7-1c18.4-1.5,36.8-4.8,54.6-9.4c27.1-6.9,53.7-15.5,80.5-23.4c4.4-1.3,7.7-2.6,10.2,3.6
				c13.6,34.1,27.7,68.1,41.5,102.1C1489.7,1587.2,1489.7,1588.3,1490.1,1590.6z"/>
			<linearGradient id="SVGID_8_" gradientUnits="userSpaceOnUse" x1="1423.0742" y1="1389.7991" x2="1076.0061" y2="1389.7991">
				<stop  offset="2.054068e-07" style="stop-color:#747474"/>
				<stop  offset="1" style="stop-color:#909090"/>
			</linearGradient>
			<path class="st7" d="M1076,1426c14.6-35.9,28.7-70.3,42.9-105.3c13.2,3.6,25.8,7.7,38.7,10.5c18.6,4,37.2,8.4,56.1,10.3
				c41.1,4.1,82.1,1.7,122.5-7.8c13.2-3.1,26.2-7.3,39.2-11.2c3.6-1.1,5.9-1.3,7.6,2.9c13.2,32.8,26.5,65.6,39.8,98.4
				c0.2,0.5,0.1,1.1,0.2,3.4C1307.8,1469.8,1192.6,1469.3,1076,1426z"/>
			<linearGradient id="SVGID_9_" gradientUnits="userSpaceOnUse" x1="1361.2252" y1="1230.5348" x2="1140.8213" y2="1230.5348">
				<stop  offset="2.054068e-07" style="stop-color:#747474"/>
				<stop  offset="1" style="stop-color:#909090"/>
			</linearGradient>
			<path class="st8" d="M1180.1,1170.5c28,8.3,55.8,12.2,84,10c16.7-1.4,33.3-5.1,50-7.4c2.4-0.3,6.8,0.8,7.5,2.5
				c13.4,31.8,26.3,63.8,39.7,96.7c-8.6,2.7-16.4,5.6-24.5,7.6c-50.1,12.8-100.6,14.2-151.3,4.4c-13.8-2.7-27.4-7-40.9-11
				c-1.7-0.5-4.2-4.6-3.6-6C1153.6,1235.1,1166.7,1203.2,1180.1,1170.5z"/>
			<linearGradient id="SVGID_10_" gradientUnits="userSpaceOnUse" x1="1300.9452" y1="1065.3317" x2="1198.9882" y2="1065.3317">
				<stop  offset="2.054068e-07" style="stop-color:#747474"/>
				<stop  offset="1" style="stop-color:#909090"/>
			</linearGradient>
			<path class="st9" d="M1300.9,1124.6c-34.5,9.5-67.5,9.1-102-0.5c16.8-41.3,33.4-82.1,50.8-124.9
				C1267.2,1041.9,1283.9,1082.7,1300.9,1124.6z"/>
		</g>
	</g>
</g>
<g id="Layer_2">
	<g>
		<path class="st10" d="M280.8,2104.3v-0.5c0-50.3,37.9-91.4,92.2-91.4c33.1,0,53.5,11.1,69.7,27.3l-24.7,28.5
			c-13.9-12.4-27.3-19.9-45.2-19.9c-29.8,0-51.3,24.7-51.3,55.1v0.5c0,30.3,21,55.6,51.3,55.6c20.2,0,32.6-7.8,46.5-20.7l24.7,25
			c-18.2,19.4-38.1,31.6-72.5,31.6C319.5,2195.2,280.8,2155.1,280.8,2104.3z"/>
		<path class="st10" d="M563.4,2015.4h80.8c22.5,0,39.6,6.1,51.5,17.9c10.1,10.1,15.2,23.5,15.2,40.4v0.5
			c0,28.5-15.4,46.5-37.9,54.8l43.2,63.1h-45.5l-37.9-56.6h-30.6v56.6h-38.9V2015.4z M641.7,2101.3c19.2,0,29.8-9.8,29.8-25v-0.5
			c0-16.9-11.4-25.3-30.6-25.3h-38.6v50.8H641.7z"/>
		<path class="st10" d="M834.4,2015.4h133.3v34.6H873v35.9h83.3v34.6H873v37.1h96v34.6H834.4V2015.4z"/>
		<path class="st10" d="M1152.6,2014.1h35.9l75.8,178h-40.7l-16.2-39.6h-74.7l-16.2,39.6h-39.6L1152.6,2014.1z M1193.5,2118.2
			l-23.5-57.3l-23.5,57.3H1193.5z"/>
		<path class="st10" d="M1398.3,2051.3h-53.8v-35.9h146.5v35.9h-53.8v140.9h-38.9V2051.3z"/>
		<path class="st10" d="M1610.9,2015.4h38.9v176.8h-38.9V2015.4z"/>
		<path class="st10" d="M1774.5,2104.3v-0.5c0-50.3,39.6-91.4,94.2-91.4s93.7,40.7,93.7,90.9v0.5c0,50.3-39.6,91.4-94.2,91.4
			S1774.5,2154.6,1774.5,2104.3z M1921.8,2104.3v-0.5c0-30.3-22.2-55.6-53.5-55.6c-31.3,0-53,24.7-53,55.1v0.5
			c0,30.3,22.2,55.6,53.5,55.6S1921.8,2134.6,1921.8,2104.3z"/>
		<path class="st10" d="M2085.4,2015.4h35.9l82.8,108.8v-108.8h38.4v176.8h-33.1l-85.6-112.4v112.4h-38.4V2015.4z"/>
	</g>
	<g>
		<path class="st10" d="M751.8,2285.6h39.5c23,0,37,13.5,37,33.4v0.3c0,22.5-17.4,33.9-39,33.9h-16.1v29h-21.2V2285.6z
			 M789.9,2334.3c10.6,0,16.8-6.3,16.8-14.6v-0.3c0-9.5-6.6-14.6-17.2-14.6h-16.4v29.5H789.9z"/>
		<path class="st10" d="M908.8,2284.9h19.6l41.4,97.3h-22.2l-8.8-21.7h-40.8l-8.8,21.7h-21.7L908.8,2284.9z M931.2,2341.8
			l-12.8-31.3l-12.8,31.3H931.2z"/>
		<path class="st10" d="M1026.1,2285.6h44.2c12.3,0,21.7,3.3,28.1,9.8c5.5,5.5,8.3,12.8,8.3,22.1v0.3c0,15.6-8.4,25.4-20.7,29.9
			l23.6,34.5h-24.8l-20.7-30.9h-16.7v30.9h-21.2V2285.6z M1068.9,2332.5c10.5,0,16.3-5.4,16.3-13.7v-0.3c0-9.2-6.2-13.8-16.7-13.8
			h-21.1v27.7H1068.9z"/>
		<path class="st10" d="M1189.8,2305.2h-29.4v-19.6h80v19.6H1211v77h-21.2V2305.2z"/>
		<path class="st10" d="M1298.1,2285.6h19.6l45.3,59.5v-59.5h21v96.6h-18.1l-46.8-61.4v61.4h-21V2285.6z"/>
		<path class="st10" d="M1448.5,2285.6h72.8v18.9h-51.7v19.6h45.5v18.9h-45.5v20.3h52.4v18.9h-73.5V2285.6z"/>
		<path class="st10" d="M1582.3,2285.6h44.2c12.3,0,21.7,3.3,28.1,9.8c5.5,5.5,8.3,12.8,8.3,22.1v0.3c0,15.6-8.4,25.4-20.7,29.9
			l23.6,34.5h-24.8l-20.7-30.9h-16.7v30.9h-21.2V2285.6z M1625.1,2332.5c10.5,0,16.3-5.4,16.3-13.7v-0.3c0-9.2-6.2-13.8-16.7-13.8
			h-21.1v27.7H1625.1z"/>
		<path class="st10" d="M1716.8,2368.1l12.6-15c8.8,7.2,17.8,11.7,28.8,11.7c8.8,0,13.9-3.4,13.9-9.1v-0.3c0-5.4-3.3-8.3-19.5-12.3
			c-19.6-4.8-32-10.5-32-29.5v-0.3c0-17.5,13.9-29.1,33.8-29.1c14.2,0,25.9,4.4,35.9,12.3l-11,16c-8.7-5.9-16.8-9.5-25.1-9.5
			s-12.4,3.6-12.4,8.4v0.3c0,6.5,4.1,8.3,20.8,12.7c19.6,5.2,30.6,12.1,30.6,29v0.3c0,19.2-14.6,29.9-35.5,29.9
			C1743,2383.6,1728.4,2378.6,1716.8,2368.1z"/>
	</g>
</g>
</svg>
